<svg width="26" height="26" viewBox="0 0 26 26" fill="none" xmlns="http://www.w3.org/2000/svg">
<g id="map pin">
<path id="icon" fill-rule="evenodd" clip-rule="evenodd" d="M13 25.2715L13.7125 24.6494C19.7044 19.4174 22.75 14.849 22.75 10.8333C22.75 5.14656 18.3115 1.08334 13 1.08334C7.68847 1.08334 3.25 5.14656 3.25 10.8333C3.25 14.849 6.29558 19.4174 12.2875 24.6494L13 25.2715ZM13 22.3854C7.9155 17.803 5.41667 13.92 5.41667 10.8333C5.41667 6.388 8.84446 3.25001 13 3.25001C17.1555 3.25001 20.5833 6.388 20.5833 10.8333C20.5833 13.92 18.0845 17.803 13 22.3854ZM13 5.41668C15.9915 5.41668 18.4167 7.8418 18.4167 10.8333C18.4167 13.8249 15.9915 16.25 13 16.25C10.0085 16.25 7.58333 13.8249 7.58333 10.8333C7.58333 7.8418 10.0085 5.41668 13 5.41668ZM9.75 10.8333C9.75 9.03842 11.2051 7.58334 13 7.58334C14.7949 7.58334 16.25 9.03842 16.25 10.8333C16.25 12.6283 14.7949 14.0833 13 14.0833C11.2051 14.0833 9.75 12.6283 9.75 10.8333Z" fill="#35476B"/>
</g>
</svg>
