<svg width="10" height="9" viewBox="0 0 10 9" fill="none" xmlns="http://www.w3.org/2000/svg">
<path fill-rule="evenodd" clip-rule="evenodd" d="M7.40365 6.55769C7.97242 5.86697 8.31253 4.99083 8.31253 4.03752C8.31253 1.80766 6.45171 0 4.15627 0C1.86082 0 0 1.80766 0 4.03752C0 6.26738 1.86082 8.07504 4.15627 8.07504C5.13761 8.07504 6.03952 7.74465 6.75055 7.19212L8.44779 8.84087C8.62814 9.01607 8.92054 9.01607 9.10089 8.84087C9.28123 8.66568 9.28123 8.38163 9.10089 8.20644L7.40365 6.55769ZM6.48442 6.21616C7.04449 5.65149 7.38892 4.88358 7.38892 4.03752C7.38892 2.30318 5.94161 0.897227 4.15627 0.897227C2.37092 0.897227 0.923614 2.30318 0.923614 4.03752C0.923614 5.77186 2.37092 7.17781 4.15627 7.17781C5.02721 7.17781 5.81771 6.84323 6.39898 6.29915C6.41113 6.2838 6.42445 6.26903 6.43893 6.25497C6.45341 6.2409 6.46861 6.22797 6.48442 6.21616Z" fill="#99879D"/>
</svg>
