<svg width="26" height="26" viewBox="0 0 26 26" fill="none" xmlns="http://www.w3.org/2000/svg">
<g id="user">
<path id="icon" fill-rule="evenodd" clip-rule="evenodd" d="M13 24.9167C6.41862 24.9167 1.08334 19.5814 1.08334 13C1.08334 6.41862 6.41862 1.08334 13 1.08334C19.5814 1.08334 24.9167 6.41862 24.9167 13C24.9167 19.5814 19.5814 24.9167 13 24.9167ZM21.0161 18.5517C22.1093 16.9762 22.75 15.0629 22.75 13C22.75 7.61523 18.3848 3.25001 13 3.25001C7.61523 3.25001 3.25001 7.61523 3.25001 13C3.25001 15.0629 3.89067 16.9762 4.98389 18.5517C6.20313 16.9412 9.06816 16.25 13 16.25C16.9319 16.25 19.7969 16.9412 21.0161 18.5517ZM19.4618 20.3014C19.1447 19.1613 16.8668 18.4167 13 18.4167C9.13318 18.4167 6.85535 19.1613 6.53827 20.3014C8.25859 21.825 10.5213 22.75 13 22.75C15.4787 22.75 17.7414 21.825 19.4618 20.3014ZM13 6.50001C10.3774 6.50001 8.66668 8.40208 8.66668 10.8333C8.66668 14.5463 10.5743 16.25 13 16.25C15.4029 16.25 17.3333 14.6029 17.3333 11.05C17.3333 8.58172 15.6154 6.50001 13 6.50001ZM10.8333 10.8333C10.8333 13.2917 11.7197 14.0833 13 14.0833C14.2759 14.0833 15.1667 13.3233 15.1667 11.05C15.1667 9.6963 14.317 8.66668 13 8.66668C11.6282 8.66668 10.8333 9.55049 10.8333 10.8333Z" fill="#35476B"/>
</g>
</svg>
